<svg width="501" height="500" viewBox="0 0 501 500" fill="none" xmlns="http://www.w3.org/2000/svg">
<path fill-rule="evenodd" clip-rule="evenodd" d="M0.760498 250C0.760498 111.929 112.689 0.00012207 250.76 0.00012207C388.832 0.00012207 500.76 111.929 500.76 250C500.76 388.071 388.832 500 250.76 500C112.689 500 0.760498 388.071 0.760498 250ZM101.354 122.911C96.699 124.713 93.1703 128.467 90.092 134.923C80.2567 155.195 75.0011 197.539 74.7759 256.927C74.7008 279.826 74.851 283.055 76.3526 290.863C84.6113 335.159 111.49 370.747 150.831 389.517C167.574 397.4 172.604 398.151 179.511 393.796C183.566 391.244 186.869 385.312 186.869 380.657C186.869 377.204 184.091 370.747 181.839 368.72C180.938 367.969 176.358 365.717 171.478 363.69C157.288 357.758 148.278 351.902 137.842 341.992C123.352 328.177 113.292 309.933 108.637 289.286C106.985 281.778 106.91 280.202 106.91 250.32C106.91 218.712 107.21 212.63 110.288 189.055C111.94 176.517 114.493 160.976 115.093 160.45C115.319 160.225 133.488 169.235 155.486 180.346C177.484 191.533 197.155 201.068 199.032 201.519C203.687 202.72 208.942 201.519 212.771 198.365C219.754 192.509 220.279 181.472 213.898 174.865C212.471 173.439 194.077 163.829 161.492 147.537L160.374 146.979L160.374 146.979C107.88 120.805 107.467 120.6 101.354 122.911ZM273.21 181.848C281.844 176.592 386.054 123.962 390.334 122.61C393.036 121.785 396.34 121.86 399.568 122.761C412.407 126.289 420.966 153.918 424.87 204.522C426.372 224.418 427.273 264.81 426.447 276.297C423.744 312.411 410.68 340.941 386.204 364.29C356.698 392.37 314.579 407.761 261.197 409.938C245.806 410.614 244.38 410.164 237.548 403.181C220.88 386.213 204.287 350.551 198.732 319.768C196.404 306.93 196.404 286.208 198.732 275.396C206.84 237.482 230.79 207.375 273.21 181.848ZM394.463 249.569C394.463 213.456 393.036 196.113 387.631 166.907C386.955 163.228 386.204 160.225 385.904 160.225C384.778 160.3 296.184 205.348 290.103 209.027C254.591 230.124 233.719 256.552 229.739 285.082C228.538 293.491 228.688 306.329 230.115 315.188C231.241 322.471 236.797 341.166 237.848 341.166C238.148 341.166 238.824 339.064 239.349 336.436C241.076 327.877 247.083 311.284 252.188 300.848C269.531 265.486 298.812 237.482 335 221.64C342.433 218.411 343.935 217.961 347.689 218.261C356.398 218.787 362.78 225.394 362.78 234.028C362.78 238.157 361.353 241.836 358.5 244.989C357.674 245.89 351.893 249.194 345.662 252.122C320.885 264.06 302.266 280.202 288.001 302.2C274.862 322.396 268.105 343.643 266.078 370.597L265.552 377.204H269.381C275.012 377.204 289.728 375.177 299.488 372.999C339.13 364.29 368.711 343.869 383.351 315.188C387.931 306.329 390.409 299.197 392.736 288.61C394.388 281.103 394.463 279.301 394.463 249.569Z" fill="url(#paint0_linear_10_133)"/>
<defs>
<linearGradient id="paint0_linear_10_133" x1="198.587" y1="0.00013946" x2="511.874" y2="134.8" gradientUnits="userSpaceOnUse">
<stop stop-color="#38EF7D"/>
<stop offset="1" stop-color="#11998E"/>
</linearGradient>
</defs>
</svg>
