<svg width="215" height="72" viewBox="0 0 215 72" fill="none" xmlns="http://www.w3.org/2000/svg">
<path fill-rule="evenodd" clip-rule="evenodd" d="M0 33C0 16.4315 13.4315 3 30 3C46.5685 3 60 16.4315 60 33C60 49.5685 46.5685 63 30 63C13.4315 63 0 49.5685 0 33ZM12.0712 17.7493C11.5126 17.9655 11.0892 18.416 10.7198 19.1908C9.53954 21.6233 8.90887 26.7047 8.88184 33.8312C8.87283 36.5791 8.89085 36.9665 9.07104 37.9035C10.0621 43.2191 13.2875 47.4896 18.0085 49.742C20.0176 50.688 20.6212 50.7781 21.4501 50.2555C21.9366 49.9492 22.333 49.2375 22.333 48.6789C22.333 48.2644 21.9997 47.4896 21.7294 47.2464C21.6213 47.1563 21.0717 46.886 20.4861 46.6427C18.7833 45.931 17.7021 45.2282 16.4498 44.039C14.711 42.3812 13.5037 40.1919 12.9451 37.7143C12.7469 36.8134 12.7379 36.6242 12.7379 33.0384C12.7379 29.2454 12.7739 28.5156 13.1433 25.6866C13.3415 24.182 13.6479 22.3171 13.7199 22.254C13.747 22.227 15.9273 23.3081 18.5671 24.6415C21.2068 25.9839 23.5673 27.1281 23.7926 27.1822C24.3512 27.3264 24.9818 27.1822 25.4413 26.8038C26.2792 26.1011 26.3423 24.7767 25.5764 23.9838C25.4053 23.8127 23.1979 22.6594 19.2878 20.7044L19.1536 20.6374C12.8544 17.4966 12.8048 17.4719 12.0712 17.7493ZM32.694 24.8217C33.7301 24.191 46.2352 17.8754 46.7488 17.7132C47.0731 17.6141 47.4695 17.6231 47.8569 17.7312C49.3976 18.1547 50.4247 21.4702 50.8931 27.5426C51.0733 29.9301 51.1815 34.7772 51.0823 36.1557C50.758 40.4892 49.1904 43.9128 46.2533 46.7148C42.7125 50.0843 37.6582 51.9313 31.2524 52.1926C29.4055 52.2737 29.2343 52.2196 28.4144 51.3817C26.4143 49.3456 24.4232 45.0661 23.7565 41.3722C23.4772 39.8315 23.4772 37.3449 23.7565 36.0475C24.7296 31.4978 27.6036 27.8849 32.694 24.8217ZM47.2443 32.9483C47.2443 28.6147 47.0731 26.5335 46.4244 23.0288C46.3433 22.5874 46.2533 22.227 46.2172 22.227C46.0821 22.236 35.4509 27.6417 34.7211 28.0832C30.4596 30.6148 27.955 33.7862 27.4775 37.2098C27.3333 38.2188 27.3513 39.7595 27.5225 40.8226C27.6576 41.6965 28.3244 43.9399 28.4505 43.9399C28.4865 43.9399 28.5676 43.6876 28.6307 43.3723C28.8379 42.3452 29.5587 40.3541 30.1713 39.1018C32.2525 34.8583 35.7662 31.4978 40.1088 29.5967C41.0007 29.2093 41.1809 29.1553 41.6314 29.1913C42.6765 29.2544 43.4423 30.0472 43.4423 31.0833C43.4423 31.5788 43.2711 32.0203 42.9287 32.3987C42.8296 32.5068 42.1359 32.9032 41.3881 33.2546C38.415 34.6871 36.1806 36.6242 34.4688 39.2639C32.8922 41.6875 32.0813 44.2372 31.8381 47.4716L31.775 48.2644H32.2345C32.9102 48.2644 34.676 48.0212 35.8473 47.7599C40.6043 46.7148 44.154 44.2642 45.9109 40.8226C46.4605 39.7595 46.7578 38.9036 47.0371 37.6332C47.2353 36.7323 47.2443 36.516 47.2443 32.9483Z" fill="url(#paint0_linear_16_64)"/>
<path d="M91.58 8C93.44 8 95.05 8.31 96.41 8.93C97.79 9.55 98.85 10.43 99.59 11.57C100.33 12.71 100.7 14.06 100.7 15.62C100.7 17.16 100.33 18.51 99.59 19.67C98.85 20.81 97.79 21.69 96.41 22.31C95.05 22.91 93.44 23.21 91.58 23.21H87.35V29H82.49V8H91.58ZM91.31 19.25C92.77 19.25 93.88 18.94 94.64 18.32C95.4 17.68 95.78 16.78 95.78 15.62C95.78 14.44 95.4 13.54 94.64 12.92C93.88 12.28 92.77 11.96 91.31 11.96H87.35V19.25H91.31ZM104.133 6.74H108.813V29H104.133V6.74ZM119.666 12.62C122.166 12.62 124.086 13.22 125.426 14.42C126.766 15.6 127.436 17.39 127.436 19.79V29H123.056V26.99C122.176 28.49 120.536 29.24 118.136 29.24C116.896 29.24 115.816 29.03 114.896 28.61C113.996 28.19 113.306 27.61 112.826 26.87C112.346 26.13 112.106 25.29 112.106 24.35C112.106 22.85 112.666 21.67 113.786 20.81C114.926 19.95 116.676 19.52 119.036 19.52H122.756C122.756 18.5 122.446 17.72 121.826 17.18C121.206 16.62 120.276 16.34 119.036 16.34C118.176 16.34 117.326 16.48 116.486 16.76C115.666 17.02 114.966 17.38 114.386 17.84L112.706 14.57C113.586 13.95 114.636 13.47 115.856 13.13C117.096 12.79 118.366 12.62 119.666 12.62ZM119.306 26.09C120.106 26.09 120.816 25.91 121.436 25.55C122.056 25.17 122.496 24.62 122.756 23.9V22.25H119.546C117.626 22.25 116.666 22.88 116.666 24.14C116.666 24.74 116.896 25.22 117.356 25.58C117.836 25.92 118.486 26.09 119.306 26.09ZM141.482 12.62C143.482 12.62 145.092 13.22 146.312 14.42C147.552 15.62 148.172 17.4 148.172 19.76V29H143.492V20.48C143.492 19.2 143.212 18.25 142.652 17.63C142.092 16.99 141.282 16.67 140.222 16.67C139.042 16.67 138.102 17.04 137.402 17.78C136.702 18.5 136.352 19.58 136.352 21.02V29H131.672V12.86H136.142V14.75C136.762 14.07 137.532 13.55 138.452 13.19C139.372 12.81 140.382 12.62 141.482 12.62ZM162.824 28.22C162.364 28.56 161.794 28.82 161.114 29C160.454 29.16 159.754 29.24 159.014 29.24C157.094 29.24 155.604 28.75 154.544 27.77C153.504 26.79 152.984 25.35 152.984 23.45V16.82H150.494V13.22H152.984V9.29H157.664V13.22H161.684V16.82H157.664V23.39C157.664 24.07 157.834 24.6 158.174 24.98C158.534 25.34 159.034 25.52 159.674 25.52C160.414 25.52 161.044 25.32 161.564 24.92L162.824 28.22ZM165.451 12.86H170.131V29H165.451V12.86ZM167.791 10.61C166.931 10.61 166.231 10.36 165.691 9.86C165.151 9.36 164.881 8.74 164.881 8C164.881 7.26 165.151 6.64 165.691 6.14C166.231 5.64 166.931 5.39 167.791 5.39C168.651 5.39 169.351 5.63 169.891 6.11C170.431 6.59 170.701 7.19 170.701 7.91C170.701 8.69 170.431 9.34 169.891 9.86C169.351 10.36 168.651 10.61 167.791 10.61ZM184.284 12.62C186.284 12.62 187.894 13.22 189.114 14.42C190.354 15.62 190.974 17.4 190.974 19.76V29H186.294V20.48C186.294 19.2 186.014 18.25 185.454 17.63C184.894 16.99 184.084 16.67 183.024 16.67C181.844 16.67 180.904 17.04 180.204 17.78C179.504 18.5 179.154 19.58 179.154 21.02V29H174.474V12.86H178.944V14.75C179.564 14.07 180.334 13.55 181.254 13.19C182.174 12.81 183.184 12.62 184.284 12.62ZM212.042 12.86V26.3C212.042 29.26 211.272 31.46 209.732 32.9C208.192 34.34 205.942 35.06 202.982 35.06C201.422 35.06 199.942 34.87 198.542 34.49C197.142 34.11 195.982 33.56 195.062 32.84L196.922 29.48C197.602 30.04 198.462 30.48 199.502 30.8C200.542 31.14 201.582 31.31 202.622 31.31C204.242 31.31 205.432 30.94 206.192 30.2C206.972 29.48 207.362 28.38 207.362 26.9V26.21C206.142 27.55 204.442 28.22 202.262 28.22C200.782 28.22 199.422 27.9 198.182 27.26C196.962 26.6 195.992 25.68 195.272 24.5C194.552 23.32 194.192 21.96 194.192 20.42C194.192 18.88 194.552 17.52 195.272 16.34C195.992 15.16 196.962 14.25 198.182 13.61C199.422 12.95 200.782 12.62 202.262 12.62C204.602 12.62 206.382 13.39 207.602 14.93V12.86H212.042ZM203.192 24.38C204.432 24.38 205.442 24.02 206.222 23.3C207.022 22.56 207.422 21.6 207.422 20.42C207.422 19.24 207.022 18.29 206.222 17.57C205.442 16.83 204.432 16.46 203.192 16.46C201.952 16.46 200.932 16.83 200.132 17.57C199.332 18.29 198.932 19.24 198.932 20.42C198.932 21.6 199.332 22.56 200.132 23.3C200.932 24.02 201.952 24.38 203.192 24.38Z" fill="#25C486"/>
<path d="M120.935 38.5L112.92 63H106.83L101.44 46.41L95.875 63H89.82L81.77 38.5H87.65L93.18 55.72L98.955 38.5H104.205L109.805 55.86L115.51 38.5H120.935ZM131.274 63.28C129.291 63.28 127.506 62.8717 125.919 62.055C124.356 61.215 123.131 60.06 122.244 58.59C121.357 57.12 120.914 55.4517 120.914 53.585C120.914 51.7183 121.357 50.05 122.244 48.58C123.131 47.11 124.356 45.9667 125.919 45.15C127.506 44.31 129.291 43.89 131.274 43.89C133.257 43.89 135.031 44.31 136.594 45.15C138.157 45.9667 139.382 47.11 140.269 48.58C141.156 50.05 141.599 51.7183 141.599 53.585C141.599 55.4517 141.156 57.12 140.269 58.59C139.382 60.06 138.157 61.215 136.594 62.055C135.031 62.8717 133.257 63.28 131.274 63.28ZM131.274 58.8C132.674 58.8 133.817 58.3333 134.704 57.4C135.614 56.4433 136.069 55.1717 136.069 53.585C136.069 51.9983 135.614 50.7383 134.704 49.805C133.817 48.8483 132.674 48.37 131.274 48.37C129.874 48.37 128.719 48.8483 127.809 49.805C126.899 50.7383 126.444 51.9983 126.444 53.585C126.444 55.1717 126.899 56.4433 127.809 57.4C128.719 58.3333 129.874 58.8 131.274 58.8ZM150.464 46.655C151.117 45.745 151.992 45.0567 153.089 44.59C154.209 44.1233 155.492 43.89 156.939 43.89V48.93C156.332 48.8833 155.924 48.86 155.714 48.86C154.15 48.86 152.925 49.3033 152.039 50.19C151.152 51.0533 150.709 52.36 150.709 54.11V63H145.249V44.17H150.464V46.655ZM160.185 37.03H165.645V63H160.185V37.03ZM189.892 37.03V63H184.677V60.83C183.324 62.4633 181.364 63.28 178.797 63.28C177.024 63.28 175.414 62.8833 173.967 62.09C172.544 61.2967 171.424 60.165 170.607 58.695C169.791 57.225 169.382 55.5217 169.382 53.585C169.382 51.6483 169.791 49.945 170.607 48.475C171.424 47.005 172.544 45.8733 173.967 45.08C175.414 44.2867 177.024 43.89 178.797 43.89C181.201 43.89 183.079 44.6483 184.432 46.165V37.03H189.892ZM179.742 58.8C181.119 58.8 182.262 58.3333 183.172 57.4C184.082 56.4433 184.537 55.1717 184.537 53.585C184.537 51.9983 184.082 50.7383 183.172 49.805C182.262 48.8483 181.119 48.37 179.742 48.37C178.342 48.37 177.187 48.8483 176.277 49.805C175.367 50.7383 174.912 51.9983 174.912 53.585C174.912 55.1717 175.367 56.4433 176.277 57.4C177.187 58.3333 178.342 58.8 179.742 58.8Z" fill="#25C486"/>
<defs>
<linearGradient id="paint0_linear_16_64" x1="23.7391" y1="3" x2="61.3336" y2="19.1759" gradientUnits="userSpaceOnUse">
<stop stop-color="#38EF7D"/>
<stop offset="1" stop-color="#11998E"/>
</linearGradient>
</defs>
</svg>
