<svg width="54" height="54" viewBox="0 0 54 54" fill="none" xmlns="http://www.w3.org/2000/svg">
<path fill-rule="evenodd" clip-rule="evenodd" d="M11.9753 49.3496C16.4065 52.3104 21.6161 53.8907 26.9454 53.8907C28.7272 53.8907 30.4909 53.7142 32.213 53.3709C31.9344 53.0648 31.691 52.7218 31.4932 52.3474L29.9561 49.5456C27.4867 49.8746 24.9668 49.7984 22.4973 49.3072C18.0746 48.4274 14.012 46.256 10.8234 43.0673C7.63476 39.8787 5.46328 35.8162 4.58354 31.3934C3.7038 26.9707 4.15532 22.3864 5.88099 18.2202C7.60666 14.0541 10.529 10.4932 14.2784 7.98793C18.0278 5.48264 22.436 4.14545 26.9454 4.14545C32.9923 4.14545 38.7915 6.54758 43.0673 10.8234C47.3431 15.0992 49.7453 20.8984 49.7453 26.9454C49.7453 27.838 49.6929 28.7266 49.5894 29.607C49.5976 29.6221 49.6058 29.6374 49.6138 29.6526L52.6181 35.1285C53.4539 32.5065 53.8907 29.7484 53.8907 26.9454C53.8907 21.6161 52.3104 16.4065 49.3496 11.9753C46.3888 7.54419 42.1805 4.09053 37.2569 2.0511C32.3333 0.011675 26.9155 -0.521933 21.6886 0.517759C16.4617 1.55745 11.6605 4.12375 7.89212 7.89212C4.12375 11.6605 1.55745 16.4617 0.517759 21.6886C-0.521933 26.9155 0.011675 32.3333 2.0511 37.2569C4.09053 42.1805 7.54419 46.3888 11.9753 49.3496Z" fill="#22A372"/>
<path d="M26.9456 29.018C24.8959 29.018 22.8922 28.4102 21.1879 27.2714C19.4836 26.1326 18.1553 24.514 17.3709 22.6203C16.5865 20.7266 16.3813 18.6429 16.7812 16.6325C17.1811 14.6222 18.1681 12.7756 19.6175 11.3262C21.0668 9.87683 22.9135 8.88979 24.9238 8.48991C26.9341 8.09003 29.0179 8.29526 30.9116 9.07966C32.8053 9.86405 34.4239 11.1924 35.5626 12.8967C36.7014 14.601 37.3092 16.6046 37.3092 18.6544C37.3092 21.403 36.2174 24.039 34.2738 25.9825C32.3303 27.9261 29.6942 29.018 26.9456 29.018ZM26.9456 12.4362C25.7158 12.4362 24.5136 12.8009 23.491 13.4842C22.4684 14.1674 21.6714 15.1386 21.2008 16.2748C20.7302 17.411 20.607 18.6613 20.847 19.8675C21.0869 21.0737 21.6791 22.1816 22.5487 23.0513C23.4184 23.9209 24.5263 24.5131 25.7325 24.753C26.9387 24.993 28.189 24.8698 29.3252 24.3992C30.4614 23.9286 31.4326 23.1316 32.1158 22.109C32.7991 21.0864 33.1638 19.8842 33.1638 18.6544C33.1638 17.0052 32.5087 15.4236 31.3425 14.2575C30.1764 13.0913 28.5948 12.4362 26.9456 12.4362Z" fill="#22A372"/>
<path fill-rule="evenodd" clip-rule="evenodd" d="M28.4261 35.243L30.627 31.2315C29.7222 31.14 28.8117 31.0929 27.8988 31.0909H25.9919C18.8548 31.0755 11.9925 33.8413 6.86066 38.8014C6.51087 39.1904 6.32108 39.6972 6.32936 40.2202C6.33765 40.7433 6.5434 41.2438 6.90534 41.6215C7.26728 41.9992 7.75865 42.2261 8.28087 42.2566C8.80309 42.2871 9.31753 42.119 9.72102 41.7861C14.088 37.5723 19.9234 35.2232 25.9919 35.2363H27.8988C28.0747 35.2366 28.2505 35.2388 28.4261 35.243Z" fill="#22A372"/>
<path d="M52.5388 38.7L48.3568 31.2C47.6188 29.825 46.1426 28.95 44.6666 28.95H36.4256C34.8266 28.95 33.4736 29.825 32.7356 31.2L28.5535 38.7C27.8155 40.075 27.8155 41.6999 28.5535 42.9499L32.7356 50.45C33.4736 51.8249 34.9496 52.6999 36.4256 52.6999H44.6666C46.2656 52.6999 47.6188 51.8249 48.3568 50.45L52.5388 42.9499C53.1538 41.6999 53.1538 39.95 52.5388 38.7ZM40.4846 45.5749C37.9016 45.5749 35.8106 43.4499 35.8106 40.825C35.8106 38.2 37.9016 36.075 40.4846 36.075C43.0676 36.075 45.1586 38.2 45.1586 40.825C45.1586 43.4499 43.0676 45.5749 40.4846 45.5749Z" fill="#575757"/>
</svg>
