<svg width="26" height="26" viewBox="0 0 26 26" fill="none" xmlns="http://www.w3.org/2000/svg">
    <path d="M13 26C10.4288 26 7.91543 25.2376 5.77759 23.8091C3.63975 22.3807 1.97351 20.3503 0.989572 17.9749C0.0056327 15.5995 -0.251811 12.9856 0.249797 10.4638C0.751405 7.94208 1.98953 5.6257 3.80762 3.80762C5.6257 1.98953 7.94208 0.751405 10.4638 0.249797C12.9856 -0.251811 15.5995 0.0056327 17.9749 0.989572C20.3503 1.97351 22.3807 3.63975 23.8091 5.77759C25.2376 7.91543 26 10.4288 26 13C26 16.4478 24.6304 19.7544 22.1924 22.1924C19.7544 24.6304 16.4478 26 13 26V26ZM13 2.00001C10.8244 2.00001 8.69767 2.64514 6.88873 3.85384C5.07979 5.06254 3.66989 6.7805 2.83733 8.79049C2.00477 10.8005 1.78693 13.0122 2.21137 15.146C2.63581 17.2798 3.68345 19.2398 5.22183 20.7782C6.76021 22.3166 8.72022 23.3642 10.854 23.7886C12.9878 24.2131 15.1995 23.9952 17.2095 23.1627C19.2195 22.3301 20.9375 20.9202 22.1462 19.1113C23.3549 17.3023 24 15.1756 24 13C24 10.0826 22.8411 7.28473 20.7782 5.22183C18.7153 3.15893 15.9174 2.00001 13 2.00001Z" fill="#646464"/>
    <path d="M13 14C12.0111 14 11.0444 13.7068 10.2222 13.1574C9.39991 12.6079 8.75904 11.827 8.3806 10.9134C8.00217 9.99979 7.90315 8.99446 8.09608 8.02455C8.289 7.05465 8.76521 6.16373 9.46447 5.46447C10.1637 4.76521 11.0546 4.289 12.0246 4.09608C12.9945 3.90315 13.9998 4.00217 14.9134 4.3806C15.8271 4.75904 16.6079 5.39991 17.1574 6.22215C17.7068 7.0444 18 8.0111 18 9C18 10.3261 17.4732 11.5979 16.5355 12.5355C15.5979 13.4732 14.3261 14 13 14ZM13 6C12.4067 6 11.8266 6.17595 11.3333 6.50559C10.8399 6.83524 10.4554 7.30377 10.2284 7.85195C10.0013 8.40013 9.94189 9.00333 10.0576 9.58527C10.1734 10.1672 10.4591 10.7018 10.8787 11.1213C11.2982 11.5409 11.8328 11.8266 12.4147 11.9424C12.9967 12.0581 13.5999 11.9987 14.1481 11.7716C14.6962 11.5446 15.1648 11.1601 15.4944 10.6667C15.8241 10.1734 16 9.59335 16 9C16 8.20435 15.6839 7.44129 15.1213 6.87868C14.5587 6.31607 13.7957 6 13 6Z" fill="#646464"/>
    <path d="M22.5502 21C22.4114 21.001 22.2739 20.973 22.1465 20.9179C22.0191 20.8628 21.9046 20.7818 21.8102 20.68C20.7487 19.5223 19.4586 18.5974 18.0213 17.9639C16.584 17.3305 15.0309 17.0023 13.4602 17H12.5402C9.61237 16.9937 6.79703 18.127 4.69017 20.16C4.4955 20.3207 4.2473 20.4017 3.99536 20.387C3.74341 20.3723 3.50635 20.2628 3.33172 20.0806C3.1571 19.8984 3.05783 19.6569 3.05384 19.4046C3.04984 19.1522 3.1414 18.9077 3.31017 18.72C5.78604 16.327 9.09682 14.9926 12.5402 15H13.4602C15.3064 15.0042 17.1318 15.3901 18.8217 16.1336C20.5117 16.877 22.0296 17.9619 23.2802 19.32C23.4123 19.4625 23.5001 19.6404 23.5327 19.8319C23.5654 20.0234 23.5416 20.2204 23.4641 20.3986C23.3867 20.5768 23.259 20.7286 23.0967 20.8354C22.9344 20.9422 22.7445 20.9994 22.5502 21V21Z" fill="#646464"/>
</svg>