<svg width="29" height="35" viewBox="0 0 29 35" fill="none" xmlns="http://www.w3.org/2000/svg">
<path d="M14.25 0C17.3518 0 19.8799 2.45602 19.9958 5.52944L20 5.75H27.25C27.9404 5.75 28.5 6.30964 28.5 7C28.5 7.64721 28.0081 8.17953 27.3778 8.24355L27.25 8.25H26.159L24.4558 30.8198C24.2885 33.0367 22.441 34.75 20.2179 34.75H8.28212C6.05898 34.75 4.21148 33.0367 4.04417 30.8198L2.34 8.25H1.25C0.602791 8.25 0.070466 7.75812 0.00645351 7.1278L0 7C0 6.35279 0.491875 5.82047 1.1222 5.75645L1.25 5.75H8.5C8.5 2.57436 11.0744 0 14.25 0ZM23.6521 8.25H4.84789L6.53708 30.6317C6.60597 31.5445 7.36671 32.25 8.28212 32.25H20.2179C21.1333 32.25 21.894 31.5445 21.9629 30.6317L23.6521 8.25ZM17.5 13.5C18.1472 13.5 18.6795 13.9919 18.7435 14.6222L18.75 14.75V25.75C18.75 26.4404 18.1904 27 17.5 27C16.8528 27 16.3205 26.5081 16.2565 25.8778L16.25 25.75V14.75C16.25 14.0596 16.8096 13.5 17.5 13.5ZM11 13.5C11.6472 13.5 12.1795 13.9919 12.2435 14.6222L12.25 14.75V25.75C12.25 26.4404 11.6904 27 11 27C10.3528 27 9.82047 26.5081 9.75645 25.8778L9.75 25.75V14.75C9.75 14.0596 10.3096 13.5 11 13.5ZM14.25 2.5C12.517 2.5 11.1008 3.85646 11.0051 5.56558L11 5.75H17.5C17.5 3.95507 16.0449 2.5 14.25 2.5Z" fill="#212121"/>
</svg>
