<svg width="228" height="72" viewBox="0 0 228 72" fill="none" xmlns="http://www.w3.org/2000/svg">
<path fill-rule="evenodd" clip-rule="evenodd" d="M3.19224 9.69081C3.83317 8.34641 4.5679 7.56479 5.53712 7.18961C6.81001 6.70839 6.89599 6.75127 17.8259 12.201L17.8259 12.201L18.0588 12.3171C24.8433 15.7093 28.6732 17.7103 28.9703 18.0073C30.299 19.383 30.1896 21.6809 28.7358 22.9003C27.9385 23.5569 26.8442 23.807 25.875 23.5569C25.4842 23.4631 21.3885 21.4777 16.8082 19.1485C12.2278 16.8349 8.44477 14.959 8.39787 15.0059C8.27281 15.1153 7.7413 18.3512 7.39739 20.9619C6.75645 25.8705 6.69392 27.1367 6.69392 33.718C6.69392 39.9397 6.70956 40.268 7.05347 41.8313C8.02269 46.1302 10.1174 49.9289 13.1345 52.8053C15.3074 54.8688 17.1833 56.0881 20.1379 57.3231C21.154 57.7452 22.1076 58.2141 22.2952 58.3705C22.7641 58.7925 23.3426 60.1369 23.3426 60.856C23.3426 61.8252 22.6547 63.0602 21.8106 63.5917C20.3724 64.4984 19.325 64.3421 15.8389 62.7007C7.64751 58.7925 2.05107 51.3827 0.33149 42.1595C0.0188391 40.5338 -0.0124261 39.8616 0.0032065 35.0936C0.0501044 22.7283 1.14438 13.9116 3.19224 9.69081ZM65.7067 7.12707C64.8156 7.40846 43.1177 18.3669 41.32 19.4611C32.4876 24.7762 27.5008 31.0448 25.8125 38.9392C25.3279 41.1903 25.3279 45.5049 25.8125 48.1781C26.9693 54.5874 30.4241 62.0128 33.8945 65.5458C35.3171 66.9996 35.6141 67.0934 38.8188 66.9527C49.9335 66.4994 58.7033 63.2947 64.8469 57.4481C69.9431 52.5864 72.6632 46.6461 73.2259 39.1268C73.3979 36.7351 73.2103 28.3248 72.8976 24.1822C72.0848 13.6458 70.3026 7.89307 67.6295 7.15834C66.9573 6.97075 66.2695 6.95512 65.7067 7.12707ZM65.1439 16.3503C66.2695 22.4313 66.5665 26.0424 66.5665 33.5617C66.5665 39.7521 66.5508 40.1273 66.2069 41.6906C65.7223 43.8947 65.2064 45.3798 64.2529 47.2245C61.2045 53.1961 55.0453 57.4481 46.7913 59.2615C44.7591 59.7149 41.6951 60.1369 40.5227 60.1369H39.7254L39.8349 58.7613C40.257 53.1492 41.6639 48.7252 44.3996 44.5201C47.3697 39.9397 51.2466 36.5787 56.4053 34.0932C57.7028 33.4835 58.9065 32.7957 59.0785 32.6081C59.6725 31.9515 59.9696 31.1855 59.9696 30.3257C59.9696 28.528 58.6408 27.1523 56.8274 27.0429C56.0458 26.9804 55.7331 27.0742 54.1855 27.7464C46.6507 31.0448 40.554 36.8758 36.9429 44.2387C35.8799 46.4116 34.6292 49.8664 34.2697 51.6485C34.1603 52.1956 34.0196 52.6333 33.9571 52.6333C33.7382 52.6333 32.5814 48.7408 32.3469 47.2245C32.0499 45.3798 32.0186 42.7067 32.2687 40.9558C33.0973 35.0155 37.4431 29.5128 44.8373 25.1201C46.1035 24.3541 64.5499 14.9746 64.7844 14.959C64.8469 14.959 65.0032 15.5843 65.1439 16.3503Z" fill="url(#paint0_linear_16_64)"/>
<path d="M104.58 8C106.44 8 108.05 8.31 109.41 8.93C110.79 9.55 111.85 10.43 112.59 11.57C113.33 12.71 113.7 14.06 113.7 15.62C113.7 17.16 113.33 18.51 112.59 19.67C111.85 20.81 110.79 21.69 109.41 22.31C108.05 22.91 106.44 23.21 104.58 23.21H100.35V29H95.49V8H104.58ZM104.31 19.25C105.77 19.25 106.88 18.94 107.64 18.32C108.4 17.68 108.78 16.78 108.78 15.62C108.78 14.44 108.4 13.54 107.64 12.92C106.88 12.28 105.77 11.96 104.31 11.96H100.35V19.25H104.31ZM117.133 6.74H121.813V29H117.133V6.74ZM132.666 12.62C135.166 12.62 137.086 13.22 138.426 14.42C139.766 15.6 140.436 17.39 140.436 19.79V29H136.056V26.99C135.176 28.49 133.536 29.24 131.136 29.24C129.896 29.24 128.816 29.03 127.896 28.61C126.996 28.19 126.306 27.61 125.826 26.87C125.346 26.13 125.106 25.29 125.106 24.35C125.106 22.85 125.666 21.67 126.786 20.81C127.926 19.95 129.676 19.52 132.036 19.52H135.756C135.756 18.5 135.446 17.72 134.826 17.18C134.206 16.62 133.276 16.34 132.036 16.34C131.176 16.34 130.326 16.48 129.486 16.76C128.666 17.02 127.966 17.38 127.386 17.84L125.706 14.57C126.586 13.95 127.636 13.47 128.856 13.13C130.096 12.79 131.366 12.62 132.666 12.62ZM132.306 26.09C133.106 26.09 133.816 25.91 134.436 25.55C135.056 25.17 135.496 24.62 135.756 23.9V22.25H132.546C130.626 22.25 129.666 22.88 129.666 24.14C129.666 24.74 129.896 25.22 130.356 25.58C130.836 25.92 131.486 26.09 132.306 26.09ZM154.482 12.62C156.482 12.62 158.092 13.22 159.312 14.42C160.552 15.62 161.172 17.4 161.172 19.76V29H156.492V20.48C156.492 19.2 156.212 18.25 155.652 17.63C155.092 16.99 154.282 16.67 153.222 16.67C152.042 16.67 151.102 17.04 150.402 17.78C149.702 18.5 149.352 19.58 149.352 21.02V29H144.672V12.86H149.142V14.75C149.762 14.07 150.532 13.55 151.452 13.19C152.372 12.81 153.382 12.62 154.482 12.62ZM175.824 28.22C175.364 28.56 174.794 28.82 174.114 29C173.454 29.16 172.754 29.24 172.014 29.24C170.094 29.24 168.604 28.75 167.544 27.77C166.504 26.79 165.984 25.35 165.984 23.45V16.82H163.494V13.22H165.984V9.29H170.664V13.22H174.684V16.82H170.664V23.39C170.664 24.07 170.834 24.6 171.174 24.98C171.534 25.34 172.034 25.52 172.674 25.52C173.414 25.52 174.044 25.32 174.564 24.92L175.824 28.22ZM178.451 12.86H183.131V29H178.451V12.86ZM180.791 10.61C179.931 10.61 179.231 10.36 178.691 9.86C178.151 9.36 177.881 8.74 177.881 8C177.881 7.26 178.151 6.64 178.691 6.14C179.231 5.64 179.931 5.39 180.791 5.39C181.651 5.39 182.351 5.63 182.891 6.11C183.431 6.59 183.701 7.19 183.701 7.91C183.701 8.69 183.431 9.34 182.891 9.86C182.351 10.36 181.651 10.61 180.791 10.61ZM197.284 12.62C199.284 12.62 200.894 13.22 202.114 14.42C203.354 15.62 203.974 17.4 203.974 19.76V29H199.294V20.48C199.294 19.2 199.014 18.25 198.454 17.63C197.894 16.99 197.084 16.67 196.024 16.67C194.844 16.67 193.904 17.04 193.204 17.78C192.504 18.5 192.154 19.58 192.154 21.02V29H187.474V12.86H191.944V14.75C192.564 14.07 193.334 13.55 194.254 13.19C195.174 12.81 196.184 12.62 197.284 12.62ZM225.042 12.86V26.3C225.042 29.26 224.272 31.46 222.732 32.9C221.192 34.34 218.942 35.06 215.982 35.06C214.422 35.06 212.942 34.87 211.542 34.49C210.142 34.11 208.982 33.56 208.062 32.84L209.922 29.48C210.602 30.04 211.462 30.48 212.502 30.8C213.542 31.14 214.582 31.31 215.622 31.31C217.242 31.31 218.432 30.94 219.192 30.2C219.972 29.48 220.362 28.38 220.362 26.9V26.21C219.142 27.55 217.442 28.22 215.262 28.22C213.782 28.22 212.422 27.9 211.182 27.26C209.962 26.6 208.992 25.68 208.272 24.5C207.552 23.32 207.192 21.96 207.192 20.42C207.192 18.88 207.552 17.52 208.272 16.34C208.992 15.16 209.962 14.25 211.182 13.61C212.422 12.95 213.782 12.62 215.262 12.62C217.602 12.62 219.382 13.39 220.602 14.93V12.86H225.042ZM216.192 24.38C217.432 24.38 218.442 24.02 219.222 23.3C220.022 22.56 220.422 21.6 220.422 20.42C220.422 19.24 220.022 18.29 219.222 17.57C218.442 16.83 217.432 16.46 216.192 16.46C214.952 16.46 213.932 16.83 213.132 17.57C212.332 18.29 211.932 19.24 211.932 20.42C211.932 21.6 212.332 22.56 213.132 23.3C213.932 24.02 214.952 24.38 216.192 24.38Z" fill="#25C486"/>
<path d="M133.935 38.5L125.92 63H119.83L114.44 46.41L108.875 63H102.82L94.77 38.5H100.65L106.18 55.72L111.955 38.5H117.205L122.805 55.86L128.51 38.5H133.935ZM144.274 63.28C142.291 63.28 140.506 62.8717 138.919 62.055C137.356 61.215 136.131 60.06 135.244 58.59C134.357 57.12 133.914 55.4517 133.914 53.585C133.914 51.7183 134.357 50.05 135.244 48.58C136.131 47.11 137.356 45.9667 138.919 45.15C140.506 44.31 142.291 43.89 144.274 43.89C146.257 43.89 148.031 44.31 149.594 45.15C151.157 45.9667 152.382 47.11 153.269 48.58C154.156 50.05 154.599 51.7183 154.599 53.585C154.599 55.4517 154.156 57.12 153.269 58.59C152.382 60.06 151.157 61.215 149.594 62.055C148.031 62.8717 146.257 63.28 144.274 63.28ZM144.274 58.8C145.674 58.8 146.817 58.3333 147.704 57.4C148.614 56.4433 149.069 55.1717 149.069 53.585C149.069 51.9983 148.614 50.7383 147.704 49.805C146.817 48.8483 145.674 48.37 144.274 48.37C142.874 48.37 141.719 48.8483 140.809 49.805C139.899 50.7383 139.444 51.9983 139.444 53.585C139.444 55.1717 139.899 56.4433 140.809 57.4C141.719 58.3333 142.874 58.8 144.274 58.8ZM163.464 46.655C164.117 45.745 164.992 45.0567 166.089 44.59C167.209 44.1233 168.492 43.89 169.939 43.89V48.93C169.332 48.8833 168.924 48.86 168.714 48.86C167.15 48.86 165.925 49.3033 165.039 50.19C164.152 51.0533 163.709 52.36 163.709 54.11V63H158.249V44.17H163.464V46.655ZM173.185 37.03H178.645V63H173.185V37.03ZM202.892 37.03V63H197.677V60.83C196.324 62.4633 194.364 63.28 191.797 63.28C190.024 63.28 188.414 62.8833 186.967 62.09C185.544 61.2967 184.424 60.165 183.607 58.695C182.791 57.225 182.382 55.5217 182.382 53.585C182.382 51.6483 182.791 49.945 183.607 48.475C184.424 47.005 185.544 45.8733 186.967 45.08C188.414 44.2867 190.024 43.89 191.797 43.89C194.201 43.89 196.079 44.6483 197.432 46.165V37.03H202.892ZM192.742 58.8C194.119 58.8 195.262 58.3333 196.172 57.4C197.082 56.4433 197.537 55.1717 197.537 53.585C197.537 51.9983 197.082 50.7383 196.172 49.805C195.262 48.8483 194.119 48.37 192.742 48.37C191.342 48.37 190.187 48.8483 189.277 49.805C188.367 50.7383 187.912 51.9983 187.912 53.585C187.912 55.1717 188.367 56.4433 189.277 57.4C190.187 58.3333 191.342 58.8 192.742 58.8Z" fill="#25C486"/>
<defs>
<linearGradient id="paint0_linear_16_64" x1="25.7823" y1="-15.0707" x2="91.0131" y2="12.9964" gradientUnits="userSpaceOnUse">
<stop stop-color="#38EF7D"/>
<stop offset="1" stop-color="#11998E"/>
</linearGradient>
</defs>
</svg>
